<mxfile host="app.diagrams.net" agent="Mozilla/5.0 (Windows NT 10.0; Win64; x64) AppleWebKit/537.36 (KHTML, like Gecko) Chrome/131.0.0.0 Safari/537.36" version="28.2.5">
  <diagram name="Page-1" id="52a04d89-c75d-2922-d76d-85b35f80e030">
    <mxGraphModel dx="1426" dy="785" grid="1" gridSize="10" guides="1" tooltips="1" connect="1" arrows="1" fold="1" page="1" pageScale="1" pageWidth="1100" pageHeight="850" background="none" math="0" shadow="0">
      <root>
        <mxCell id="0" />
        <mxCell id="1" parent="0" />
        <mxCell id="21ea969265ad0168-30" value="Patients" style="html=1;rounded=0;shadow=0;comic=0;labelBackgroundColor=none;strokeWidth=2;fontFamily=Verdana;fontSize=12;align=center;shape=mxgraph.ios7ui.horLines;" parent="1" vertex="1">
          <mxGeometry x="1350" y="79" width="135" height="50" as="geometry" />
        </mxCell>
        <mxCell id="17472293e6e8944d-29" value="Сотрудник ресепшена" style="whiteSpace=wrap;html=1;rounded=0;shadow=0;comic=0;labelBackgroundColor=none;strokeWidth=1;fontFamily=Verdana;fontSize=12;align=center;" parent="1" vertex="1">
          <mxGeometry x="750" y="79" width="120" height="50" as="geometry" />
        </mxCell>
        <mxCell id="1fdf3b25b50cf41e-27" style="edgeStyle=none;html=1;labelBackgroundColor=none;startFill=0;startSize=8;endFill=1;endSize=8;fontFamily=Verdana;fontSize=12;" parent="1" source="17472293e6e8944d-30" target="1fdf3b25b50cf41e-1" edge="1">
          <mxGeometry relative="1" as="geometry" />
        </mxCell>
        <mxCell id="wmSecnhCIObgYq9AWwNq-1" value="Обращение в медицинский центр" style="edgeLabel;html=1;align=center;verticalAlign=middle;resizable=0;points=[];" parent="1fdf3b25b50cf41e-27" vertex="1" connectable="0">
          <mxGeometry x="0.216" y="2" relative="1" as="geometry">
            <mxPoint x="-24" y="2" as="offset" />
          </mxGeometry>
        </mxCell>
        <mxCell id="17472293e6e8944d-30" value="Пациент" style="whiteSpace=wrap;html=1;rounded=0;shadow=0;comic=0;labelBackgroundColor=none;strokeWidth=1;fontFamily=Verdana;fontSize=12;align=center;" parent="1" vertex="1">
          <mxGeometry x="90" y="79" width="120" height="50" as="geometry" />
        </mxCell>
        <mxCell id="1fdf3b25b50cf41e-28" style="edgeStyle=none;html=1;labelBackgroundColor=none;startFill=0;startSize=8;endFill=1;endSize=8;fontFamily=Verdana;fontSize=12;" parent="1" source="1fdf3b25b50cf41e-1" target="17472293e6e8944d-29" edge="1">
          <mxGeometry relative="1" as="geometry" />
        </mxCell>
        <mxCell id="wmSecnhCIObgYq9AWwNq-8" value="Передача сотруднику" style="edgeLabel;html=1;align=center;verticalAlign=middle;resizable=0;points=[];" parent="1fdf3b25b50cf41e-28" vertex="1" connectable="0">
          <mxGeometry x="-0.142" y="1" relative="1" as="geometry">
            <mxPoint x="1" y="1" as="offset" />
          </mxGeometry>
        </mxCell>
        <mxCell id="1fdf3b25b50cf41e-29" style="edgeStyle=none;html=1;labelBackgroundColor=none;startFill=0;startSize=8;endFill=1;endSize=8;fontFamily=Verdana;fontSize=12;entryX=0.5;entryY=0;entryDx=0;entryDy=0;" parent="1" source="1fdf3b25b50cf41e-1" target="wmSecnhCIObgYq9AWwNq-2" edge="1">
          <mxGeometry relative="1" as="geometry">
            <mxPoint x="500" y="200" as="targetPoint" />
          </mxGeometry>
        </mxCell>
        <mxCell id="wmSecnhCIObgYq9AWwNq-7" value="Дополнение формы" style="edgeLabel;html=1;align=center;verticalAlign=middle;resizable=0;points=[];" parent="1fdf3b25b50cf41e-29" vertex="1" connectable="0">
          <mxGeometry x="-0.0424" relative="1" as="geometry">
            <mxPoint as="offset" />
          </mxGeometry>
        </mxCell>
        <mxCell id="1fdf3b25b50cf41e-38" style="html=1;labelBackgroundColor=none;startFill=0;startSize=8;endFill=1;endSize=8;fontFamily=Verdana;fontSize=12;exitX=1;exitY=0.5;exitDx=0;exitDy=0;entryX=0;entryY=0.5;entryDx=0;entryDy=0;edgeStyle=orthogonalEdgeStyle;" parent="1" source="17472293e6e8944d-29" target="wmSecnhCIObgYq9AWwNq-4" edge="1">
          <mxGeometry relative="1" as="geometry" />
        </mxCell>
        <mxCell id="wmSecnhCIObgYq9AWwNq-12" value="Регистрация пациента" style="edgeLabel;html=1;align=center;verticalAlign=middle;resizable=0;points=[];" parent="1fdf3b25b50cf41e-38" vertex="1" connectable="0">
          <mxGeometry x="-0.0505" y="-3" relative="1" as="geometry">
            <mxPoint x="-2" y="-5" as="offset" />
          </mxGeometry>
        </mxCell>
        <mxCell id="1fdf3b25b50cf41e-1" value="1.1" style="swimlane;html=1;fontStyle=0;childLayout=stackLayout;horizontal=1;startSize=26;fillColor=#e0e0e0;horizontalStack=0;resizeParent=1;resizeLast=0;collapsible=1;marginBottom=0;swimlaneFillColor=#ffffff;align=center;rounded=1;shadow=0;comic=0;labelBackgroundColor=none;strokeWidth=1;fontFamily=Verdana;fontSize=12" parent="1" vertex="1">
          <mxGeometry x="430" y="54" width="160" height="100" as="geometry">
            <mxRectangle x="430" y="54" width="60" height="30" as="alternateBounds" />
          </mxGeometry>
        </mxCell>
        <mxCell id="1fdf3b25b50cf41e-2" value="Заполнение формы с ПД:&lt;div&gt;Ф. И. О., дата рождения, телефон и электронная почта&lt;/div&gt;" style="text;html=1;strokeColor=none;fillColor=none;spacingLeft=4;spacingRight=4;whiteSpace=wrap;overflow=hidden;rotatable=0;points=[[0,0.5],[1,0.5]];portConstraint=eastwest;align=center;" parent="1fdf3b25b50cf41e-1" vertex="1">
          <mxGeometry y="26" width="160" height="74" as="geometry" />
        </mxCell>
        <mxCell id="wmSecnhCIObgYq9AWwNq-2" value="1.2" style="swimlane;html=1;fontStyle=0;childLayout=stackLayout;horizontal=1;startSize=26;fillColor=#e0e0e0;horizontalStack=0;resizeParent=1;resizeLast=0;collapsible=1;marginBottom=0;swimlaneFillColor=#ffffff;align=center;rounded=1;shadow=0;comic=0;labelBackgroundColor=none;strokeWidth=1;fontFamily=Verdana;fontSize=12" parent="1" vertex="1">
          <mxGeometry x="430" y="250" width="160" height="110" as="geometry" />
        </mxCell>
        <mxCell id="wmSecnhCIObgYq9AWwNq-3" value="Заполнение расширенной ПД:&amp;nbsp;адрес прописки, место работы или учёбы, хронические заболевания" style="text;html=1;strokeColor=none;fillColor=none;spacingLeft=4;spacingRight=4;whiteSpace=wrap;overflow=hidden;rotatable=0;points=[[0,0.5],[1,0.5]];portConstraint=eastwest;align=center;" parent="wmSecnhCIObgYq9AWwNq-2" vertex="1">
          <mxGeometry y="26" width="160" height="84" as="geometry" />
        </mxCell>
        <mxCell id="wmSecnhCIObgYq9AWwNq-4" value="2.1" style="swimlane;html=1;fontStyle=0;childLayout=stackLayout;horizontal=1;startSize=26;fillColor=#e0e0e0;horizontalStack=0;resizeParent=1;resizeLast=0;collapsible=1;marginBottom=0;swimlaneFillColor=#ffffff;align=center;rounded=1;shadow=0;comic=0;labelBackgroundColor=none;strokeWidth=1;fontFamily=Verdana;fontSize=12" parent="1" vertex="1">
          <mxGeometry x="1060" y="79" width="140" height="52" as="geometry" />
        </mxCell>
        <mxCell id="wmSecnhCIObgYq9AWwNq-5" value="Заполнение Excel" style="text;html=1;strokeColor=none;fillColor=none;spacingLeft=4;spacingRight=4;whiteSpace=wrap;overflow=hidden;rotatable=0;points=[[0,0.5],[1,0.5]];portConstraint=eastwest;align=center;" parent="wmSecnhCIObgYq9AWwNq-4" vertex="1">
          <mxGeometry y="26" width="140" height="26" as="geometry" />
        </mxCell>
        <mxCell id="wmSecnhCIObgYq9AWwNq-6" style="edgeStyle=orthogonalEdgeStyle;html=1;labelBackgroundColor=none;startFill=0;startSize=8;endFill=1;endSize=8;fontFamily=Verdana;fontSize=12;entryX=0.25;entryY=1;entryDx=0;entryDy=0;exitX=1;exitY=0.5;exitDx=0;exitDy=0;" parent="1" source="wmSecnhCIObgYq9AWwNq-3" target="17472293e6e8944d-29" edge="1">
          <mxGeometry relative="1" as="geometry">
            <mxPoint x="500" y="200" as="sourcePoint" />
            <mxPoint x="500" y="266" as="targetPoint" />
          </mxGeometry>
        </mxCell>
        <mxCell id="wmSecnhCIObgYq9AWwNq-9" value="Передача сотруднику" style="edgeLabel;html=1;align=center;verticalAlign=middle;resizable=0;points=[];" parent="wmSecnhCIObgYq9AWwNq-6" vertex="1" connectable="0">
          <mxGeometry x="-0.4232" y="-1" relative="1" as="geometry">
            <mxPoint x="-19" y="-1" as="offset" />
          </mxGeometry>
        </mxCell>
        <mxCell id="wmSecnhCIObgYq9AWwNq-13" style="html=1;labelBackgroundColor=none;startFill=0;startSize=8;endFill=1;endSize=8;fontFamily=Verdana;fontSize=12;exitX=1;exitY=0.5;exitDx=0;exitDy=0;edgeStyle=orthogonalEdgeStyle;" parent="1" source="wmSecnhCIObgYq9AWwNq-4" target="21ea969265ad0168-30" edge="1">
          <mxGeometry relative="1" as="geometry">
            <mxPoint x="880" y="100" as="sourcePoint" />
            <mxPoint x="1070" y="101" as="targetPoint" />
          </mxGeometry>
        </mxCell>
        <mxCell id="wmSecnhCIObgYq9AWwNq-14" value="Сохранение" style="edgeLabel;html=1;align=center;verticalAlign=middle;resizable=0;points=[];" parent="wmSecnhCIObgYq9AWwNq-13" vertex="1" connectable="0">
          <mxGeometry x="-0.0505" y="-3" relative="1" as="geometry">
            <mxPoint x="-2" y="-5" as="offset" />
          </mxGeometry>
        </mxCell>
        <mxCell id="wmSecnhCIObgYq9AWwNq-15" value="2.2" style="swimlane;html=1;fontStyle=0;childLayout=stackLayout;horizontal=1;startSize=26;fillColor=#e0e0e0;horizontalStack=0;resizeParent=1;resizeLast=0;collapsible=1;marginBottom=0;swimlaneFillColor=#ffffff;align=center;rounded=1;shadow=0;comic=0;labelBackgroundColor=none;strokeWidth=1;fontFamily=Verdana;fontSize=12" parent="1" vertex="1">
          <mxGeometry x="1060" y="190" width="140" height="70" as="geometry" />
        </mxCell>
        <mxCell id="wmSecnhCIObgYq9AWwNq-16" value="Сканирование документов" style="text;html=1;strokeColor=none;fillColor=none;spacingLeft=4;spacingRight=4;whiteSpace=wrap;overflow=hidden;rotatable=0;points=[[0,0.5],[1,0.5]];portConstraint=eastwest;align=center;" parent="wmSecnhCIObgYq9AWwNq-15" vertex="1">
          <mxGeometry y="26" width="140" height="44" as="geometry" />
        </mxCell>
        <mxCell id="wmSecnhCIObgYq9AWwNq-17" style="html=1;labelBackgroundColor=none;startFill=0;startSize=8;endFill=1;endSize=8;fontFamily=Verdana;fontSize=12;exitX=1;exitY=0.75;exitDx=0;exitDy=0;entryX=0;entryY=0.5;entryDx=0;entryDy=0;edgeStyle=orthogonalEdgeStyle;" parent="1" source="17472293e6e8944d-29" target="wmSecnhCIObgYq9AWwNq-15" edge="1">
          <mxGeometry relative="1" as="geometry">
            <mxPoint x="880" y="100" as="sourcePoint" />
            <mxPoint x="1070" y="101" as="targetPoint" />
          </mxGeometry>
        </mxCell>
        <mxCell id="wmSecnhCIObgYq9AWwNq-18" value="Регистрация ПД пациента" style="edgeLabel;html=1;align=center;verticalAlign=middle;resizable=0;points=[];" parent="wmSecnhCIObgYq9AWwNq-17" vertex="1" connectable="0">
          <mxGeometry x="-0.0505" y="-3" relative="1" as="geometry">
            <mxPoint x="-2" y="-5" as="offset" />
          </mxGeometry>
        </mxCell>
        <mxCell id="wmSecnhCIObgYq9AWwNq-20" value="&lt;span style=&quot;font-family: Helvetica; text-align: left; text-wrap-mode: wrap;&quot;&gt;Pacient1-FIO-BD&lt;/span&gt;" style="html=1;rounded=0;shadow=0;comic=0;labelBackgroundColor=none;strokeWidth=2;fontFamily=Verdana;fontSize=12;align=center;shape=mxgraph.ios7ui.horLines;" parent="1" vertex="1">
          <mxGeometry x="1350" y="192" width="135" height="50" as="geometry" />
        </mxCell>
        <mxCell id="wmSecnhCIObgYq9AWwNq-21" style="html=1;labelBackgroundColor=none;startFill=0;startSize=8;endFill=1;endSize=8;fontFamily=Verdana;fontSize=12;exitX=1;exitY=0.5;exitDx=0;exitDy=0;edgeStyle=orthogonalEdgeStyle;" parent="1" source="wmSecnhCIObgYq9AWwNq-15" target="wmSecnhCIObgYq9AWwNq-20" edge="1">
          <mxGeometry relative="1" as="geometry">
            <mxPoint x="1230" y="81" as="sourcePoint" />
            <mxPoint x="1380" y="80" as="targetPoint" />
          </mxGeometry>
        </mxCell>
        <mxCell id="wmSecnhCIObgYq9AWwNq-22" value="Сохранение" style="edgeLabel;html=1;align=center;verticalAlign=middle;resizable=0;points=[];" parent="wmSecnhCIObgYq9AWwNq-21" vertex="1" connectable="0">
          <mxGeometry x="-0.0505" y="-3" relative="1" as="geometry">
            <mxPoint x="-2" y="-5" as="offset" />
          </mxGeometry>
        </mxCell>
        <mxCell id="wmSecnhCIObgYq9AWwNq-23" value="3.1" style="swimlane;html=1;fontStyle=0;childLayout=stackLayout;horizontal=1;startSize=26;fillColor=#e0e0e0;horizontalStack=0;resizeParent=1;resizeLast=0;collapsible=1;marginBottom=0;swimlaneFillColor=#ffffff;align=center;rounded=1;shadow=0;comic=0;labelBackgroundColor=none;strokeWidth=1;fontFamily=Verdana;fontSize=12" parent="1" vertex="1">
          <mxGeometry x="1060" y="308" width="140" height="70" as="geometry" />
        </mxCell>
        <mxCell id="wmSecnhCIObgYq9AWwNq-24" value="Заполнение Excel врача" style="text;html=1;strokeColor=none;fillColor=none;spacingLeft=4;spacingRight=4;whiteSpace=wrap;overflow=hidden;rotatable=0;points=[[0,0.5],[1,0.5]];portConstraint=eastwest;align=center;" parent="wmSecnhCIObgYq9AWwNq-23" vertex="1">
          <mxGeometry y="26" width="140" height="44" as="geometry" />
        </mxCell>
        <mxCell id="wmSecnhCIObgYq9AWwNq-27" style="html=1;labelBackgroundColor=none;startFill=0;startSize=8;endFill=1;endSize=8;fontFamily=Verdana;fontSize=12;exitX=0.75;exitY=1;exitDx=0;exitDy=0;entryX=0;entryY=0.5;entryDx=0;entryDy=0;edgeStyle=orthogonalEdgeStyle;" parent="1" source="17472293e6e8944d-29" target="wmSecnhCIObgYq9AWwNq-23" edge="1">
          <mxGeometry relative="1" as="geometry">
            <mxPoint x="960" y="130" as="sourcePoint" />
            <mxPoint x="1150" y="249" as="targetPoint" />
          </mxGeometry>
        </mxCell>
        <mxCell id="wmSecnhCIObgYq9AWwNq-28" value="Запись пациента к врачу" style="edgeLabel;html=1;align=center;verticalAlign=middle;resizable=0;points=[];" parent="wmSecnhCIObgYq9AWwNq-27" vertex="1" connectable="0">
          <mxGeometry x="-0.0505" y="-3" relative="1" as="geometry">
            <mxPoint x="113" y="3" as="offset" />
          </mxGeometry>
        </mxCell>
        <mxCell id="wmSecnhCIObgYq9AWwNq-29" value="&lt;div style=&quot;text-align: left;&quot;&gt;&lt;span style=&quot;background-color: transparent; text-wrap-mode: wrap;&quot;&gt;&lt;font face=&quot;Helvetica&quot;&gt;Journals&lt;/font&gt;&lt;/span&gt;&lt;/div&gt;" style="html=1;rounded=0;shadow=0;comic=0;labelBackgroundColor=none;strokeWidth=2;fontFamily=Verdana;fontSize=12;align=center;shape=mxgraph.ios7ui.horLines;" parent="1" vertex="1">
          <mxGeometry x="1350" y="310" width="135" height="50" as="geometry" />
        </mxCell>
        <mxCell id="wmSecnhCIObgYq9AWwNq-30" style="html=1;labelBackgroundColor=none;startFill=0;startSize=8;endFill=1;endSize=8;fontFamily=Verdana;fontSize=12;exitX=1;exitY=0.5;exitDx=0;exitDy=0;edgeStyle=orthogonalEdgeStyle;" parent="1" source="wmSecnhCIObgYq9AWwNq-23" target="wmSecnhCIObgYq9AWwNq-29" edge="1">
          <mxGeometry relative="1" as="geometry">
            <mxPoint x="1230" y="219" as="sourcePoint" />
            <mxPoint x="1380" y="218" as="targetPoint" />
          </mxGeometry>
        </mxCell>
        <mxCell id="wmSecnhCIObgYq9AWwNq-31" value="Сохранение" style="edgeLabel;html=1;align=center;verticalAlign=middle;resizable=0;points=[];" parent="wmSecnhCIObgYq9AWwNq-30" vertex="1" connectable="0">
          <mxGeometry x="-0.0505" y="-3" relative="1" as="geometry">
            <mxPoint x="-2" y="-5" as="offset" />
          </mxGeometry>
        </mxCell>
      </root>
    </mxGraphModel>
  </diagram>
</mxfile>
